<?xml version="1.0" encoding="UTF-8"?>
<svg width="16px" height="16px" viewBox="0 0 16 16" version="1.1" xmlns="http://www.w3.org/2000/svg" xmlns:xlink="http://www.w3.org/1999/xlink">
    <!-- Generator: sketchtool 49 (51002) - http://www.bohemiancoding.com/sketch -->
    <title>1029EE0E-4605-435E-A518-AE27048B6192</title>
    <desc>Created with sketchtool.</desc>
    <defs>
        <polygon id="path-1" points="0.001875 0 7.01215625 0 7.01215625 7.01215625 0.001875 7.01215625"></polygon>
        <polygon id="path-3" points="0.001875 0.01909375 16 0.01909375 16 7.03125 0.001875 7.03125"></polygon>
    </defs>
    <g id="Page-1" stroke="none" stroke-width="1" fill="none" fill-rule="evenodd">
        <g id="02-No-data-yet" transform="translate(-22.000000, -92.000000)">
            <g id="left" transform="translate(0.000000, 71.000000)">
                <g id="Group-41">
                    <g id="ic_dashboard" transform="translate(22.000000, 21.000000)">
                        <g id="Group-3">
                            <mask id="mask-2" fill="white">
                                <use xlink:href="#path-1"></use>
                            </mask>
                            <g id="Clip-2"></g>
                            <path d="M1.463375,1.29265625 C1.36925,1.29265625 1.29265625,1.36925 1.29265625,1.463375 L1.29265625,5.54875 C1.29265625,5.64290625 1.36925,5.71953125 1.463375,5.71953125 L5.54875,5.71953125 C5.64290625,5.71953125 5.71953125,5.64290625 5.71953125,5.54875 L5.71953125,1.463375 C5.71953125,1.36921875 5.64290625,1.29265625 5.54875,1.29265625 L1.463375,1.29265625 Z M5.54878125,7.01215625 L1.463375,7.01215625 C0.6565,7.01215625 0,6.3556875 0,5.54878125 L0,1.463375 C0,0.6565 0.6565,0 1.463375,0 L5.54875,0 C6.3556875,0 7.01215625,0.6565 7.01215625,1.463375 L7.01215625,5.54875 C7.01215625,6.3556875 6.3556875,7.01215625 5.54878125,7.01215625 Z" id="Fill-1" fill="#3DBCBE" mask="url(#mask-2)"></path>
                        </g>
                        <path d="M10.4512188,1.29265625 C10.3570938,1.29265625 10.2804688,1.36925 10.2804688,1.463375 L10.2804688,5.54875 C10.2804688,5.64290625 10.3570938,5.71953125 10.4512188,5.71953125 L14.536625,5.71953125 C14.63075,5.71953125 14.707375,5.64290625 14.707375,5.54875 L14.707375,1.463375 C14.707375,1.36921875 14.63075,1.29265625 14.536625,1.29265625 L10.4512188,1.29265625 Z M14.536625,7.01215625 L10.4512188,7.01215625 C9.64428125,7.01215625 8.98784375,6.3556875 8.98784375,5.54875 L8.98784375,1.463375 C8.98784375,0.6565 9.64428125,0 10.4512188,0 L14.536625,0 C15.3435,0 16,0.6565 16,1.463375 L16,5.54875 C16,6.3556875 15.3435,7.01215625 14.536625,7.01215625 Z" id="Fill-4" fill="#3DBCBE"></path>
                        <g id="Group-8" transform="translate(0.000000, 8.968750)">
                            <mask id="mask-4" fill="white">
                                <use xlink:href="#path-3"></use>
                            </mask>
                            <g id="Clip-6"></g>
                            <path d="M10.4512188,1.31171875 C10.3570938,1.31171875 10.2804688,1.38834375 10.2804688,1.48246875 L10.2804688,5.567875 C10.2804688,5.662 10.3570938,5.738625 10.4512188,5.738625 L14.536625,5.738625 C14.63075,5.738625 14.707375,5.662 14.707375,5.567875 L14.707375,1.48246875 C14.707375,1.38834375 14.63075,1.31171875 14.536625,1.31171875 L10.4512188,1.31171875 Z M14.536625,7.03125 L10.4512188,7.03125 C9.64428125,7.03125 8.98784375,6.37475 8.98784375,5.567875 L8.98784375,1.48246875 C8.98784375,0.67553125 9.6443125,0.01909375 10.4512188,0.01909375 L14.536625,0.01909375 C15.3435312,0.01909375 16,0.6755625 16,1.48246875 L16,5.567875 C16,6.37475 15.3435,7.03125 14.536625,7.03125 Z" id="Fill-5" fill="#3DBCBE" mask="url(#mask-4)"></path>
                            <path d="M1.463375,1.31171875 C1.36921875,1.31171875 1.29265625,1.38834375 1.29265625,1.48246875 L1.29265625,5.567875 C1.29265625,5.662 1.36925,5.738625 1.463375,5.738625 L5.54875,5.738625 C5.64290625,5.738625 5.71953125,5.662 5.71953125,5.567875 L5.71953125,1.48246875 C5.71953125,1.38834375 5.64290625,1.31171875 5.54875,1.31171875 L1.463375,1.31171875 Z M5.54878125,7.03125 L1.463375,7.03125 C0.6565,7.03125 0,6.37475 0,5.567875 L0,1.48246875 C0,0.67553125 0.6565,0.01909375 1.463375,0.01909375 L5.54875,0.01909375 C6.3556875,0.01909375 7.01215625,0.6755625 7.01215625,1.48246875 L7.01215625,5.567875 C7.01215625,6.37475 6.3556875,7.03125 5.54878125,7.03125 Z" id="Fill-7" fill="#3DBCBE" mask="url(#mask-4)"></path>
                        </g>
                    </g>
                </g>
            </g>
        </g>
    </g>
</svg>