<?xml version="1.0" encoding="UTF-8"?>
<svg width="19px" height="21px" viewBox="0 0 19 21" version="1.1" xmlns="http://www.w3.org/2000/svg" xmlns:xlink="http://www.w3.org/1999/xlink">
    <!-- Generator: sketchtool 49 (51002) - http://www.bohemiancoding.com/sketch -->
    <title>E3F73220-17FC-4FFF-B1AD-49CAB5F33DD9</title>
    <desc>Created with sketchtool.</desc>
    <defs></defs>
    <g id="Page-1" stroke="none" stroke-width="1" fill="none" fill-rule="evenodd">
        <g id="02-No-data-yet" transform="translate(-20.000000, -150.000000)" fill="#BFC5D1">
            <g id="left" transform="translate(0.000000, 71.000000)">
                <g id="Group-41" transform="translate(0.000000, 60.000000)">
                    <g id="ic_site" transform="translate(20.000000, 19.000000)">
                        <path d="M4.85319058,20.0237064 L14.7534008,20.0237064 L14.7534008,18.9414113 L4.85319058,18.9414113 L4.85319058,20.0237064 Z M6.68624489,18.0346545 L12.9203465,18.0346545 L12.9203465,16.8953728 L6.68624489,16.8953728 L6.68624489,18.0346545 Z M3.57777886,12.3220576 L3.28144053,12.3220576 C3.20246058,12.255219 3.10046525,12.2147888 2.98894491,12.2147888 C2.87742457,12.2147888 2.77542924,12.255219 2.69644929,12.3220576 L2.40530271,12.3220576 L2.40530271,7.93029005 L3.57777886,7.93029005 L3.57777886,12.3220576 Z M8.81555577,4.71255207 L15.3222854,4.71255207 L15.3222854,7.02345143 L2.40534359,7.02345143 L2.40534359,6.32142106 L12.337481,6.32142106 C12.5878295,6.32142106 12.7908799,6.11841152 12.7908799,5.86802219 C12.7908799,5.61759198 12.5878295,5.41462332 12.337481,5.41462332 L2.40534359,5.41462332 L2.40534359,4.71255207 L8.81555577,4.71255207 Z M8.3621569,2.38215301 L8.3621569,3.80579521 L6.76759587,3.80579521 L8.3621569,2.38215301 Z M9.26895464,1.57260853 L9.80333658,1.0955402 L10.3376368,1.57252677 L10.3376368,3.80575433 L9.26899552,3.80575433 L9.26899552,1.57260853 L9.26895464,1.57260853 Z M12.8389546,3.80575433 L11.2443936,3.80575433 L11.2443936,2.38211213 L12.8389546,3.80575433 Z M11.2239537,9.04986763 L9.46673156,7.93029005 L11.2239537,7.93029005 L11.2239537,9.04986763 Z M11.2239537,14.9818668 L11.2239537,15.9885342 L9.08961456,15.9885342 L11.2239537,14.9818668 Z M8.38267861,12.6959042 L10.7053923,14.223831 L8.38267861,15.3193712 L8.38267861,12.6959042 Z M11.2239537,13.4795717 L8.84993576,11.9178781 L11.2239537,10.5919389 L11.2239537,13.4795717 Z M10.7457407,9.82037181 L8.38267861,11.14022 L8.38267861,8.31468367 L10.7457407,9.82037181 Z M17.9522114,20.0237064 L15.6601986,20.0237064 L15.6601986,18.4880533 C15.6601986,18.2376231 15.4571481,18.0346545 15.2067997,18.0346545 L13.8271442,18.0346545 L13.8271442,16.4419739 C13.8271442,16.1915846 13.6240938,15.988575 13.3737454,15.988575 L12.1307105,15.988575 L12.1307105,7.93029005 L15.7757251,7.93029005 C16.0260736,7.93029005 16.229124,7.72728051 16.229124,7.47689118 L16.229124,4.2591532 C16.229124,4.00876387 16.0260736,3.80575433 15.7757251,3.80575433 L14.2005412,3.80575433 L11.2444345,1.16646681 L11.2444345,0.453398871 C11.2444345,0.202968659 11.0413841,0 10.7910356,0 L8.81559665,0 C8.5652482,0 8.36223866,0.202968659 8.36223866,0.453398871 L8.36223866,1.16654857 L5.4060911,3.80575433 L1.95194471,3.80575433 C1.70159626,3.80575433 1.49854584,4.00876387 1.49854584,4.2591532 L1.49854584,7.47599182 C1.49854584,7.47627798 1.49850496,7.47656414 1.49850496,7.4768503 L1.49850496,12.7753747 C1.49850496,13.0258049 1.7015145,13.2287736 1.95190383,13.2287736 L2.53554604,13.2287736 L2.53554604,13.7307378 C2.0160035,13.8975686 1.63888651,14.3853884 1.63888651,14.9596691 C1.63888651,15.6711018 2.21770489,16.2499611 2.92917851,16.2499611 C3.34034845,16.2499611 3.73050613,16.0513257 3.97276037,15.7186042 C4.12017325,15.516167 4.07553241,15.2325423 3.87309519,15.0852112 C3.67073973,14.9377983 3.38711505,14.9823574 3.23970216,15.1848355 C3.1664454,15.2854409 3.05328986,15.3431633 2.92917851,15.3431633 C2.71770683,15.3431633 2.54564337,15.1710999 2.54564337,14.9596691 C2.54564337,14.7481974 2.71770683,14.5761748 2.92917851,14.5761748 L2.98894491,14.5761748 C3.23929336,14.5761748 3.44234378,14.3732062 3.44234378,14.1227759 L3.44234378,13.2287736 L4.03113685,13.2287736 C4.28152618,13.2287736 4.48453572,13.0258049 4.48453572,12.7754156 L4.48453572,7.93029005 L7.47588086,7.93029005 L7.47588086,15.988575 L6.2328869,15.988575 C5.98249757,15.988575 5.77948803,16.1915437 5.77948803,16.4419739 L5.77948803,18.0346545 L4.39979171,18.0346545 C4.14944325,18.0346545 3.94639284,18.2376231 3.94639284,18.4880533 L3.94639284,20.0237064 L1.27158069,20.0237064 C1.02123224,20.0237064 0.818181818,20.226716 0.818181818,20.4771053 C0.818181818,20.7275355 1.02123224,20.9305042 1.27158069,20.9305042 L17.9522523,20.9305042 C18.2026416,20.9305042 18.4056512,20.7275355 18.4056512,20.4771053 C18.4056512,20.226716 18.2026416,20.0237064 17.9522114,20.0237064 Z" id="Fill-1"></path>
                    </g>
                </g>
            </g>
        </g>
    </g>
</svg>